<svg xmlns="http://www.w3.org/2000/svg" viewBox="0 0 128 128" width="128" height="128">
  <!-- Ground -->
  <ellipse cx="64" cy="90" rx="58" ry="30" fill="#1a3a2a"/>
  <!-- Water -->
  <ellipse cx="64" cy="85" rx="48" ry="24" fill="#0c2d48"/>
  <ellipse cx="64" cy="83" rx="44" ry="20" fill="#145374" opacity="0.6"/>
  <!-- Water shimmer -->
  <ellipse cx="55" cy="80" rx="15" ry="5" fill="#14b8a6" opacity="0.15"/>
  <ellipse cx="72" cy="86" rx="10" ry="3" fill="#14b8a6" opacity="0.1"/>
  <!-- Rocks -->
  <ellipse cx="25" cy="82" rx="8" ry="5" fill="#4a5568"/>
  <ellipse cx="28" cy="80" rx="6" ry="4" fill="#718096"/>
  <ellipse cx="100" cy="88" rx="7" ry="4" fill="#4a5568"/>
  <!-- Reeds -->
  <line x1="18" y1="75" x2="16" y2="55" stroke="#2d5a3e" stroke-width="2"/>
  <line x1="20" y1="76" x2="22" y2="58" stroke="#2d5a3e" stroke-width="2"/>
  <line x1="108" y1="82" x2="110" y2="60" stroke="#2d5a3e" stroke-width="2"/>
  <!-- Fishing sign -->
  <rect x="80" y="45" width="3" height="28" fill="#8B7355" rx="1"/>
  <rect x="70" y="40" width="24" height="14" rx="3" fill="#1a3a2a" stroke="#14b8a6" stroke-width="1"/>
  <text x="82" y="50" text-anchor="middle" font-size="8" fill="#14b8a6" font-family="sans-serif">🎣</text>
  <!-- Lily pad -->
  <ellipse cx="50" cy="88" rx="6" ry="3" fill="#2d5a3e" opacity="0.7"/>
  <ellipse cx="75" cy="82" rx="5" ry="2.5" fill="#2d5a3e" opacity="0.5"/>
  <!-- Sparkle on water -->
  <circle cx="60" cy="78" r="1" fill="#f4c542" opacity="0.6"/>
  <circle cx="70" cy="84" r="0.8" fill="#f4c542" opacity="0.4"/>
</svg>
